<svg xmlns="http://www.w3.org/2000/svg" height="816" width="1093">
 <g>
  <title>Labels</title>
 </g>
 <g>
  <title>Shapes</title>
  <g id="svg_5">
   <rect fill="#00AA7F" height="34.83146" id="svg_2" stroke-width="0" width="44.94382" x="145.20221" y="105.34833" />
   <rect fill="#00AA7F" height="38.20225" id="svg_3" stroke-width="0" width="75.2809" x="480.03367" y="100.85394" />
   <rect fill="#00AA7F" height="37.07865" id="svg_4" stroke-width="0" width="89.88764" x="804.75278" y="103.10114" />
  </g>
  <g id="svg_12">
   <rect fill="#00AA7F" height="23.59551" id="svg_6" stroke-width="0" width="101.1236" x="209.24715" y="226.69664" />
   <rect fill="#00AA7F" height="28.08989" id="svg_7" stroke-width="0" width="34.83146" x="178.91007" y="254.78653" />
   <rect fill="#00AA7F" height="38.20225" id="svg_8" stroke-width="0" width="82.02247" x="550.82019" y="221.07867" />
   <rect fill="#00AA7F" height="31.46067" id="svg_9" stroke-width="0" width="30.33708" x="518.23592" y="255.91013" />
   <rect fill="#00AA7F" height="29.21348" id="svg_10" stroke-width="0" width="79.77528" x="871.04492" y="221.07867" />
   <rect fill="#00AA7F" height="38.20225" id="svg_11" stroke-width="0" width="330.33708" x="694.64042" y="253.66294" />
  </g>
  <g id="svg_20">
   <rect fill="#00AA7F" height="29.21348" id="svg_13" stroke-width="0" width="105.61798" x="242.95502" y="387.3708" />
   <rect fill="#00AA7F" height="37.07865" id="svg_14" stroke-width="0" width="328.08989" x="37.33704" y="414.3371" />
   <rect fill="#00AA7F" height="29.21348" id="svg_15" stroke-width="0" width="86.51686" x="585.65165" y="384.00002" />
   <rect fill="#00AA7F" height="29.21348" id="svg_16" stroke-width="0" width="312.35955" x="375.53929" y="421.07867" />
   <rect fill="#00AA7F" height="28.08989" id="svg_17" stroke-width="0" width="76.4045" x="368.79772" y="451.41575" />
   <rect fill="#00AA7F" height="32.58427" id="svg_18" stroke-width="0" width="107.86517" x="908.12357" y="381.75283" />
   <rect fill="#00AA7F" height="31.46067" id="svg_19" stroke-width="0" width="329.21349" x="704.75278" y="419.95507" />
  </g>
  <g id="svg_25">
   <rect fill="#00AA7F" height="38.20225" id="svg_21" stroke-width="0" width="238.20225" x="26.10108" y="487.3708" />
   <rect fill="#00AA7F" height="60.67416" id="svg_22" stroke-width="0" width="288.76405" x="373.2921" y="522.20227" />
   <rect fill="#00AA7F" height="30.33708" id="svg_23" stroke-width="0" width="337.07866" x="700.2584" y="489.618" />
   <rect fill="#00AA7F" height="25.8427" id="svg_24" stroke-width="0" width="128.08989" x="923.8539" y="457.03372" />
  </g>
  <g id="svg_29">
   <rect fill="#00AA7F" height="35.95506" id="svg_26" stroke-width="0" width="182.02247" x="37.33704" y="726.69665" />
   <rect fill="#00AA7F" height="31.46067" id="svg_27" stroke-width="0" width="135.95506" x="376.66289" y="727.82025" />
   <rect fill="#00AA7F" height="38.20225" id="svg_28" stroke-width="0" width="210.11236" x="700.2584" y="725.57305" />
  </g>
 </g>
</svg>